<?xml version="1.0" encoding="UTF-8"?>
<svg width="400" height="280" xmlns="http://www.w3.org/2000/svg">
  <!-- Window frame -->
  <rect x="10" y="10" width="380" height="260" rx="8" fill="#f5f5f5" stroke="#ccc" stroke-width="2"/>

  <!-- Title bar -->
  <rect x="10" y="10" width="380" height="30" rx="8" fill="#e0e0e0"/>
  <rect x="10" y="30" width="380" height="10" fill="#e0e0e0"/>

  <!-- Window controls -->
  <circle cx="30" cy="25" r="6" fill="#ff5f57"/>
  <circle cx="50" cy="25" r="6" fill="#ffbd2e"/>
  <circle cx="70" cy="25" r="6" fill="#28ca42"/>

  <!-- Title -->
  <text x="200" y="28" text-anchor="middle" font-family="Arial" font-size="12" fill="#333">MD-Book Editor</text>

  <!-- Sidebar -->
  <rect x="15" y="45" width="100" height="220" fill="#2d2d2d"/>
  <text x="25" y="65" font-family="Arial" font-size="10" fill="#aaa">CHAPTERS</text>
  <text x="25" y="85" font-family="monospace" font-size="9" fill="#4A90D9">1. Getting Started</text>
  <text x="25" y="100" font-family="monospace" font-size="9" fill="#888">2. Core Concepts</text>
  <text x="25" y="115" font-family="monospace" font-size="9" fill="#888">3. Advanced</text>
  <text x="25" y="130" font-family="monospace" font-size="9" fill="#888">4. Features</text>

  <!-- Main editor area -->
  <rect x="120" y="45" width="265" height="220" fill="#1e1e1e"/>

  <!-- Editor content -->
  <text x="130" y="65" font-family="monospace" font-size="10" fill="#569cd6"># Chapter 1</text>
  <text x="130" y="85" font-family="monospace" font-size="9" fill="#ce9178">Getting started with</text>
  <text x="130" y="100" font-family="monospace" font-size="9" fill="#ce9178">MD-Book is easy...</text>
  <text x="130" y="125" font-family="monospace" font-size="10" fill="#569cd6">## Installation</text>
  <text x="130" y="145" font-family="monospace" font-size="9" fill="#d4d4d4">```bash</text>
  <text x="130" y="160" font-family="monospace" font-size="9" fill="#4ec9b0">pip install md-book</text>
  <text x="130" y="175" font-family="monospace" font-size="9" fill="#d4d4d4">```</text>

  <!-- Status bar -->
  <rect x="120" y="250" width="265" height="15" fill="#007acc"/>
  <text x="130" y="260" font-family="Arial" font-size="8" fill="white">Ln 15, Col 23 | Markdown | UTF-8</text>
</svg>
